<svg width="36" height="34" viewBox="0 0 36 34" fill="none" xmlns="http://www.w3.org/2000/svg">
<path d="M7.5 21.2502H6C5.20435 21.2502 4.44129 20.9517 3.87868 20.4203C3.31607 19.8889 3 19.1683 3 18.4168V5.66683C3 4.91538 3.31607 4.19471 3.87868 3.66336C4.44129 3.13201 5.20435 2.8335 6 2.8335H19.5C20.2956 2.8335 21.0587 3.13201 21.6213 3.66336C22.1839 4.19471 22.5 4.91538 22.5 5.66683V7.0835M16.5 12.7502H30C31.6569 12.7502 33 14.0187 33 15.5835V28.3335C33 29.8983 31.6569 31.1668 30 31.1668H16.5C14.8431 31.1668 13.5 29.8983 13.5 28.3335V15.5835C13.5 14.0187 14.8431 12.7502 16.5 12.7502Z" stroke-width="4" stroke-linecap="round" stroke-linejoin="round"/>
</svg>
