<svg width="93" height="93" viewBox="0 0 93 93" fill="none" xmlns="http://www.w3.org/2000/svg">
<path d="M2.03149 10.0335C2.03149 5.61518 5.61322 2.03345 10.0315 2.03345H47.1639V47.4955H2.03149V10.0335Z" fill="#B26EB5" stroke="black" stroke-width="2"/>
<path d="M21.771 28.8948H29.0073V31.0334H18.0308L25.4331 18.094H19.2417V15.9553H29.1733L21.771 28.8948Z" fill="black"/>
<path d="M46.8645 2.03345H83.9969C88.4152 2.03345 91.9969 5.61517 91.9969 10.0334V47.4955H46.8645V2.03345Z" fill="#DFE5F2" stroke="black" stroke-width="2"/>
<path d="M62.6313 31.0334V14.9299L73.6273 26.4338V15.9553H75.9027V31.9514L64.9066 20.4768V31.0334H62.6313Z" fill="black"/>
<path d="M2.03149 46.5378H47.1639V91.9999H10.0315C5.61322 91.9999 2.03149 88.4182 2.03149 83.9999V46.5378Z" fill="#FFCC00" stroke="black" stroke-width="2"/>
<path d="M27.6533 72.8379H21.1982L19.5185 76.5H17.0674L24.5283 60.4746L31.7256 76.5H29.2353L27.6533 72.8379ZM26.7256 70.6992L24.4892 65.5723L22.1455 70.6992H26.7256Z" fill="black"/>
<path d="M46.8645 46.5378H91.9969V83.9999C91.9969 88.4182 88.4152 91.9999 83.9969 91.9999H46.8645V46.5378Z" fill="white" stroke="black" stroke-width="2"/>
<path d="M68.0295 67.4375L73.8987 61.4219H76.9358L70.1194 68.248L76.9748 76.5H73.928L68.4983 69.791L68.0295 70.2598V76.5H65.7541V61.4219H68.0295V67.4375Z" fill="black"/>
<rect x="1.5" y="1.5" width="90" height="90" rx="7.5" stroke="black" stroke-width="3"/>
</svg>
